# xmcd
#
# Track frame offsets: 
#        150
#        41817
#        59614
#        80823
#        92920
#        123325
#        160129
#        206199
#        233740
#
# Disc length: 3491 seconds
#
# Revision: 0
# Processed by: cddbd v1.5.2PL0 Copyright (c) Steve Scherf et al.
# Submitted via: ExactAudioCopy v0.99pb5
#
DISCID=7f0da109
DTITLE=New Orleans Socjal Club - Live at the 2010 New Orleans Jazz and H
DTITLE=eritage Festival
DYEAR=2010
DGENRE=Jazz+Funk
TTITLE0=1. Comeback Jack
TTITLE1=2. Lovin' You
TTITLE2=3. Take Me Back To New Orleans
TTITLE3=4. Lovin' You
TTITLE4=5. Indian Red
TTITLE5=6. Tipitina's
TTITLE6=7. Walcome To New Orleans
TTITLE7=8. Fortunate Son
TTITLE8=9. Big Chief
EXTD=
EXTT0=
EXTT1=
EXTT2=
EXTT3=
EXTT4=
EXTT5=
EXTT6=
EXTT7=
EXTT8=
PLAYORDER=
